<svg width="48" height="48" viewBox="0 0 48 48" fill="none" xmlns="http://www.w3.org/2000/svg">
<path d="M21.3743 4.75148C22.5156 2.68618 25.4844 2.68618 26.6257 4.75148L30.8541 12.4031C31.2844 13.1816 32.0379 13.7291 32.9113 13.8977L41.495 15.5547C43.8119 16.0019 44.7294 18.8254 43.1178 20.5491L37.1474 26.935C36.5399 27.5848 36.2521 28.4706 36.3616 29.3533L37.4383 38.029C37.7289 40.3707 35.327 42.1158 33.1897 41.1158L25.2714 37.4109C24.4657 37.0339 23.5343 37.0339 22.7286 37.4109L14.8103 41.1158C12.673 42.1158 10.2711 40.3707 10.5617 38.029L11.6384 29.3533C11.7479 28.4706 11.4601 27.5848 10.8526 26.935L4.88217 20.5491C3.27064 18.8254 4.18807 16.0019 6.50497 15.5547L15.0887 13.8977C15.9621 13.7291 16.7156 13.1816 17.1459 12.4031L21.3743 4.75148Z" fill="white"/>
<path d="M22.249 5.23535C23.0099 3.85849 24.9901 3.85849 25.751 5.23535L29.9785 12.8867C30.5522 13.9248 31.5572 14.6551 32.7217 14.8799L41.3057 16.5361C42.8501 16.8343 43.4618 18.7171 42.3877 19.8662L36.417 26.252C35.607 27.1183 35.2231 28.2996 35.3691 29.4766L36.4463 38.1523C36.6398 39.7134 35.0381 40.8766 33.6133 40.21L25.6953 36.5049C24.6211 36.0023 23.3789 36.0023 22.3047 36.5049L14.3867 40.21C12.9619 40.8766 11.3602 39.7134 11.5537 38.1523L12.6309 29.4766C12.7769 28.2996 12.393 27.1183 11.583 26.252L5.6123 19.8662C4.53816 18.7171 5.14987 16.8343 6.69434 16.5361L15.2783 14.8799C16.4428 14.6551 17.4478 13.9248 18.0215 12.8867L22.249 5.23535Z" stroke="#E1DC53" stroke-opacity="0.5" stroke-width="2"/>
<path d="M24 14L24 32" stroke="#E1DC53" stroke-opacity="0.5" stroke-width="2"/>
<path d="M33 23L15 23" stroke="#E1DC53" stroke-opacity="0.5" stroke-width="2"/>
</svg>
